#!OML:ASF F:\VICON\USERDATA\INSTALL\rory3\rory3.ASF
:FULLY-SPECIFIED
:DEGREES
306
root 10.2795 17.639 1.804 -62.965 86.602 -59.877
lowerback 11.9369 0.143793 -4.17547
upperback 1.48835 -0.211144 1.494
thorax -5.11085 0.0164524 3.96401
lowerneck -5.76559 -10.0886 -13.351
upperneck 39.0325 -14.2849 9.94529
head 17.0335 -6.19985 4.60758
rclavicle 7.97623e-015 1.33186e-014
rhumerus -41.1515 -24.4943 -71.9088
rradius 33.8075
rwrist 8.07048
rhand -22.5161 8.66937
rfingers 7.12502
rthumb 3.91036 -21.2745
lclavicle 7.97623e-015 1.33186e-014
lhumerus -35.1385 7.97936 76.3543
lradius 32.6245
lwrist -2.63164
lhand -21.2706 26.5015
lfingers 7.12502
lthumb 5.11309 56.4198
rfemur -4.2159 4.38811 3.98892
rtibia 25.336
rfoot -3.32966 0.332887
rtoes -19.7557
lfemur -3.71329 -10.292 -6.84881
ltibia 26.6966
lfoot -12.8112 3.02333
ltoes -23.4848
307
root 10.2743 17.6273 1.93554 -62.6078 86.6806 -59.5535
lowerback 11.9283 0.126158 -4.39075
upperback 1.49148 -0.264979 1.44907
thorax -5.0965 -0.00682068 4.04747
lowerneck -5.77754 -10.0843 -13.416
upperneck 39.1809 -14.2716 9.96058
head 17.129 -6.19876 4.63675
rclavicle -4.79568e-015 7.55382e-015
rhumerus -41.0464 -24.2621 -72.1132
rradius 33.8873
rwrist 8.06407
rhand -22.6231 8.86364
rfingers 7.12502
rthumb 3.80707 -21.0821
lclavicle -4.79568e-015 7.55382e-015
lhumerus -35.0758 8.2245 76.0389
lradius 32.4826
lwrist -2.78381
lhand -21.3905 26.4929
lfingers 7.12502
lthumb 4.99733 56.4139
rfemur -4.14064 4.25013 4.32361
rtibia 25.2967
rfoot -4.38434 0.339707
rtoes -18.8913
lfemur -3.85942 -10.2786 -6.40525
ltibia 26.8255
lfoot -12.5914 2.81767
ltoes -24.048
308
root 10.2622 17.6155 2.06893 -64.2367 86.7523 -61.0764
lowerback 12.1954 0.087215 -4.48664
upperback 1.47969 -0.34343 1.38725
thorax -5.24907 -0.0393145 4.05285
lowerneck -5.7315 -10.0871 -13.4103
upperneck 39.284 -14.2694 9.92749
head 17.1716 -6.20042 4.62857
rclavicle -4.72114e-016 9.54166e-015
rhumerus -40.9641 -24.0429 -72.3299
rradius 33.891
rwrist 8.16445
rhand -22.6884 8.89436
rfingers 7.12502
rthumb 3.74398 -21.0525
lclavicle -4.72114e-016 9.54166e-015
lhumerus -35.0095 8.42696 75.6728
lradius 32.2648
lwrist -2.87583
lhand -21.6584 26.779
lfingers 7.12502
lthumb 4.73858 56.706
rfemur -3.943 3.8781 4.7721
rtibia 25.3164
rfoot -5.37003 0.268209
rtoes -18.8342
lfemur -3.89113 -10.6595 -5.96346
ltibia 26.9301
lfoot -12.2267 2.89724
ltoes -24.8877
309
root 10.2493 17.6086 2.20747 -67.4688 86.7005 -64.1776
lowerback 12.4422 0.0666007 -4.49734
upperback 1.51242 -0.381571 1.36316
thorax -5.34764 -0.0550036 4.04274
lowerneck -5.6348 -10.1028 -13.308
upperneck 39.2629 -14.3185 9.9228
head 17.1314 -6.21018 4.60218
rclavicle -1.13804e-014 9.14409e-015
rhumerus -40.8247 -23.7924 -72.5962
rradius 33.9224
rwrist 7.96337
rhand -22.6696 8.94358
rfingers 7.12502
rthumb 3.7622 -21.003
lclavicle -1.13804e-014 9.14409e-015
lhumerus -34.8407 8.68406 75.3073
lradius 32.0478
lwrist -2.94338
lhand -21.7872 27.1088
lfingers 7.12502
lthumb 4.61426 57.0385
rfemur -3.69944 3.58521 5.46607
rtibia 25.3446
rfoot -6.25318 -0.00050041
rtoes -18.9776
lfemur -3.9204 -10.9098 -5.35162
ltibia 27.0491
lfoot -11.7812 2.97278
ltoes -25.9473
310
root 10.2437 17.6111 2.34509 -68.6923 86.4493 -65.4351
lowerback 12.4121 0.0766264 -4.39866
upperback 1.52986 -0.350057 1.41116
thorax -5.31603 -0.0420766 4.03162
lowerneck -5.59182 -10.1097 -13.4148
upperneck 39.3305 -14.3393 10.0024
head 17.1872 -6.22546 4.65991
rclavicle -1.86361e-015 -3.97569e-016
rhumerus -40.7205 -23.5628 -72.8037
rradius 34.049
rwrist 7.72389
rhand -22.6981 8.89589
rfingers 7.12502
rthumb 3.7346 -21.0511
lclavicle -1.86361e-015 -3.97569e-016
lhumerus -34.6871 9.03696 75.0061
lradius 31.8247
lwrist -3.145
lhand -21.7949 27.2883
lfingers 7.12502
lthumb 4.60678 57.2182
rfemur -3.65471 3.50021 6.35783
rtibia 25.3612
rfoot -7.04657 -0.409084
rtoes -18.1165
lfemur -4.05556 -10.7093 -4.54196
ltibia 27.1898
lfoot -11.4116 2.78859
ltoes -26.294
311
root 10.2357 17.6114 2.47782 -68.9461 86.1606 -65.6488
lowerback 12.4552 0.0379136 -4.24422
upperback 1.59077 -0.374652 1.48921
thorax -5.27351 -0.0579279 4.03048
lowerneck -5.70322 -10.0666 -13.6221
upperneck 39.5103 -14.234 10.0255
head 17.328 -6.20448 4.7327
rclavicle 3.35449e-015 1.23246e-014
rhumerus -40.4256 -23.0716 -73.1327
rradius 34.0638
rwrist 7.56385
rhand -22.6375 8.82016
rfingers 7.12502
rthumb 3.79318 -21.1258
lclavicle 3.35449e-015 1.23246e-014
lhumerus -34.5894 9.46275 74.7049
lradius 31.6497
lwrist -3.2348
lhand -21.6744 27.0248
lfingers 7.12502
lthumb 4.72316 56.9522
rfemur -3.58711 3.26242 7.26433
rtibia 25.3476
rfoot -7.77486 -0.824259
rtoes -18.196
lfemur -4.08818 -10.6087 -3.78545
ltibia 27.337
lfoot -10.9439 2.80982
ltoes -26.769
312
root 10.2221 17.6143 2.60941 -68.3116 85.9501 -65.0586
lowerback 12.4743 0.0463252 -4.12962
upperback 1.60926 -0.34624 1.51505
thorax -5.26804 -0.0461753 3.98796
lowerneck -5.69878 -10.0396 -13.6898
upperneck 39.5782 -14.1856 10.0465
head 17.3682 -6.19164 4.76816
rclavicle 3.13086e-015 -1.74931e-014
rhumerus -40.1532 -22.6056 -73.4369
rradius 34.0202
rwrist 7.37494
rhand -22.6988 8.96646
rfingers 7.12502
rthumb 3.73394 -20.9806
lclavicle 3.13086e-015 -1.74931e-014
lhumerus -34.5183 10.0234 74.3405
lradius 31.513
lwrist -3.61797
lhand -21.4698 26.8246
lfingers 7.12502
lthumb 4.92077 56.7474
rfemur -3.66849 2.88553 8.06192
rtibia 25.3242
rfoot -8.44351 -1.3002
rtoes -18.1665
lfemur -4.21317 -10.8118 -3.20115
ltibia 27.488
lfoot -10.2529 3.22658
ltoes -27.6251
313
root 10.2054 17.6194 2.74623 -68.0838 85.7421 -64.9263
lowerback 12.4887 0.0990242 -4.01777
upperback 1.58808 -0.261967 1.52227
thorax -5.30735 -0.0056747 3.91828
lowerneck -5.57761 -10.0541 -13.7413
upperneck 39.5417 -14.251 10.1745
head 17.3521 -6.21596 4.82835
rclavicle 1.2424e-015 -1.35174e-014
rhumerus -40.0011 -22.4819 -73.5861
rradius 34.0057
rwrist 7.34766
rhand -22.7506 8.9825
rfingers 7.12502
rthumb 3.68393 -20.9654
lclavicle 1.2424e-015 -1.35174e-014
lhumerus -34.4263 10.6216 74.0111
lradius 31.3198
lwrist -4.25859
lhand -21.5466 26.8304
lfingers 7.12502
lthumb 4.84654 56.755
rfemur -3.77136 2.50469 8.89261
rtibia 25.2786
rfoot -9.0996 -1.78184
rtoes -17.3517
lfemur -4.41561 -11.0918 -2.59496
ltibia 27.6747
lfoot -9.53033 3.66136
ltoes -27.2441
314
root 10.1882 17.6269 2.88375 -68.3137 85.5231 -65.1064
lowerback 12.6558 0.120937 -3.88445
upperback 1.60928 -0.219131 1.5182
thorax -5.3824 0.0148477 3.83269
lowerneck -5.49952 -10.0748 -13.8024
upperneck 39.5352 -14.3137 10.2733
head 17.3617 -6.24345 4.87644
rclavicle -1.68967e-015 -1.94809e-014
rhumerus -39.8921 -22.0831 -73.9055
rradius 34.075
rwrist 7.15262
rhand -22.6889 9.01819
rfingers 7.12502
rthumb 3.7435 -20.9287
lclavicle -1.68967e-015 -1.94809e-014
lhumerus -34.3923 11.0724 73.7055
lradius 31.2547
lwrist -4.56773
lhand -21.8205 26.9551
lfingers 7.12502
lthumb 4.58207 56.8856
rfemur -3.68946 1.90928 9.73853
rtibia 25.1785
rfoot -9.58683 -2.10793
rtoes -16.4444
lfemur -4.49072 -11.3392 -2.02395
ltibia 27.8963
lfoot -8.75959 4.18013
ltoes -27.1645
